<svg xmlns="http://www.w3.org/2000/svg" width="42.103" height="100"><path fill="#010101" d="M11.804 62.666h18.469c-1.577 2.285-3.434 4.057-5.148 5.373-2.895 2.221-5.388 3.184-5.448 3.205-.188.068-1.373.52-3.064 1.434l-.02.01c-1.879 1.019-4.382 2.606-6.879 4.898-4.878 4.478-9.713 11.635-9.713 22.414h8c0-.697.038-1.367.089-2.025h25.925c.051.658.088 1.328.088 2.025h8c0-10.768-4.823-17.919-9.697-22.398-1.912 1.451-3.686 2.525-4.996 3.234l-.221.117c-.805.427-1.493.755-2.041 1.002 1.744 1.334 3.629 3.134 5.221 5.477h-18.635c1.593-2.342 3.479-4.144 5.228-5.479 2.803-2.145 5.243-3.11 5.483-3.201.184-.066 1.358-.518 3.042-1.424l.021-.01c1.879-1.014 4.385-2.604 6.885-4.9 4.877-4.48 9.711-11.633 9.711-22.415 0-10.777-4.83-17.932-9.709-22.411-2.987 2.27-5.707 3.665-7.246 4.362 1.744 1.336 3.631 3.136 5.223 5.478h-18.632c1.841-2.713 4.076-4.704 6.033-6.084 1.026-.724 1.96-1.274 2.731-1.683l2.688-1.217c1.386-.595 4.466-2.09 7.752-4.778 5.317-4.351 11.157-11.82 11.157-23.67h-8c0 .736-.059 1.428-.117 2.12h-25.883c-.06-.687-.101-1.389-.101-2.12h-8c0 10.776 4.831 17.93 9.71 22.411 2.987-2.27 5.707-3.666 7.248-4.364-1.721-1.315-3.578-3.087-5.154-5.381h18.478c-4.147 6.036-10.236 8.438-10.624 8.584-.785.289-19.657 7.453-19.657 28.751 0 10.774 4.828 17.927 9.706 22.407 1.575-1.199 3.238-2.294 5.004-3.249.889-.479 1.65-.845 2.246-1.112-1.723-1.317-3.579-3.088-5.153-5.381zm21.713-57.346c-.346 1.51-.836 2.88-1.416 4.146h-22.108c-.576-1.262-1.056-2.641-1.399-4.146h24.923zm-24.947 89.455c.337-1.506.809-2.883 1.378-4.146h22.208c.568 1.264 1.041 2.641 1.377 4.146h-24.963zm25.431-42.655h-25.902c-.058-.688-.099-1.388-.099-2.119 0-.696.034-1.368.088-2.026h25.925c.053.657.088 1.328.088 2.026 0 .731-.041 1.433-.1 2.119zm-1.846-11.489c.569 1.261 1.042 2.64 1.378 4.144h-24.971c.336-1.503.809-2.882 1.377-4.144h22.216zm-22.164 18.835c-.577-1.261-1.054-2.641-1.397-4.146h24.91c-.346 1.505-.828 2.883-1.407 4.146h-22.106z"/></svg>