<svg width="38" height="23" xmlns="http://www.w3.org/2000/svg" xmlns:sketch="http://www.bohemiancoding.com/sketch/ns"><title>shortwave</title><desc>Created with Sketch.</desc><path d="M37.74 17.55c-2.219 0-3.637-3.741-5.136-7.703-1.657-4.375-3.369-8.899-6.463-8.899-2.889 0-4.589 4.904-6.389 10.096l-.343.987c-1.751 2.136-3.657 4.16-6.786 4.16-3.364 0-4.937-2.682-6.459-5.275-1.135-1.939-3.267-5.14-5.904-5.14-.144 0-.26.137-.26.304 0 .167.116.3.261.3 2.739 0 4.108 3.708 5.558 7.632 1.572 4.262 3.201 8.668 6.805 8.668 3.585 0 5.589-5.579 7.5-11.087 1.734-2.143 3.38-4.156 6.018-4.156 2.856 0 4.514 2.776 6.118 5.46 1.173 1.961 3.366 5.256 5.481 5.256.143 0 .26-.135.26-.302 0-.167-.117-.302-.26-.302zm-5.492-6.799l.338.806-.106-.226c-1.64-3.547-3.338-7.214-6.338-7.214-2.05 0-3.505 1.88-4.841 4.336 1.362-3.102 2.809-5.543 4.841-5.543 2.841 0 4.501 3.988 6.106 7.842zm-26.073 2.354l-.308-.754.075.165c1.559 3.439 3.17 6.995 6.682 6.995 2.452 0 4.164-1.958 5.623-4.479-1.471 3.165-3.174 5.686-5.623 5.686-3.35 0-4.926-3.871-6.449-7.614zm-.567-1.963l.337.659c1.56 3.049 3.172 6.201 6.679 6.201 2.554 0 4.306-1.708 5.807-3.852-1.51 2.786-3.253 5.06-5.807 5.06-3.354 0-4.929-3.473-6.451-6.833l-.565-1.235zm20.534-6.721c2.844 0 4.503 3.586 6.11 7.053l.583 1.252-.356-.684c-1.642-3.154-3.34-6.416-6.337-6.416-2.149 0-3.642 1.663-5.038 3.776 1.418-2.756 2.906-4.982 5.038-4.982zm0-2.869c2.173 0 3.653 2.702 4.962 5.903-1.282-2.691-2.776-4.845-4.962-4.845-1.59 0-2.82 1.348-3.917 3.325 1.119-2.568 2.345-4.383 3.917-4.383zm-13.518 14.941c2.656 0 4.445-1.393 5.988-3.099-1.551 2.345-3.328 4.306-5.988 4.306-3.358 0-4.933-3.078-6.454-6.053-.281-.552-.565-1.106-.862-1.641.216.352.429.713.643 1.078 1.56 2.659 3.172 5.408 6.673 5.408zm0 5.586c-2.58 0-4.094-2.645-5.36-5.769 1.254 2.615 2.803 4.712 5.36 4.712 1.954 0 3.436-1.487 4.695-3.615-1.269 2.717-2.746 4.673-4.695 4.673zm13.518-14.943c-2.236 0-3.768 1.363-5.216 3.05 1.468-2.328 2.987-4.258 5.216-4.258 2.85 0 4.507 3.187 6.112 6.269.239.457.477.913.716 1.354l-.497-.826c-1.642-2.748-3.34-5.589-6.331-5.589z" sketch:type="MSShapeGroup" fill="#FEFEFE"/></svg>