<svg width="135" height="45" xmlns="http://www.w3.org/2000/svg" xmlns:sketch="http://www.bohemiancoding.com/sketch/ns"><title>alonso</title><desc>Created with Sketch.</desc><path d="M134.917 3.81c-16.134-3.843-32.79-4.502-48.49-1.562-5.425 1.011-10.755 3.047-16.04 3.506-8.506.72-14.099-2.098-21.11-3.506-15.702-3.139-34.1-3.093-49.277.781 0 2.971.231 5.727.786 8.161.262 1.026 1.433 1.133 1.957 1.547 2.974 2.419 3.19 9.693 4.299 13.995 1.695 6.676 4.314 12.218 9.43 15.266 9.43 5.589 33.36 2.741 39.939-10.856.678-1.899 4.869-13.551 7.72-16.843 1.094-1.271 5.717-1.102 6.841-.077 3.82 6.002 4.438 12.832 8.413 17.946 7.781 10.014 17.751 12.848 25.81 12.832 5.099-.014 11.68-.812 15.252-3.108 8.091-5.206 6.55-18.221 10.557-27.592.447-1.24 2.774-.628 3.143-1.945.524-2.496 1.063-6.477.77-8.544zm-128.013 4.744c-1.746 0-3.16-.562-3.16-1.256s1.415-1.256 3.16-1.256c1.746 0 3.16.562 3.16 1.256s-1.415 1.256-3.16 1.256zm111.587 30.612c-3.714 2.419-11.601 2.833-17.597 2.341-5.963-.49-9.446-3.122-12.929-5.315l-4.667-5.575c-1.68-2.586-2.619-5.388-3.513-8.941-1.06-4.165-2.404-10.259.77-13.214 2.541-2.358 11.433-4.241 17.212-4.655 11.618-.857 25.363.429 26.982 9.325 1.541 8.409-1.344 22.864-6.257 26.034zm-66.843-8.406c-2.28 3.767-10.894 9.708-17.242 10.351-7.026.721-15.537-.822-18.634-4.604-3.073-1.88-6.13-13.923-6.005-19.482.262-11.3 6.641-11.519 18.383-12.928 8.875-1.057 24.978 1.092 27.381 5.532 3.328 6.171-3.883 21.131-3.883 21.131zm76.985-20.674c-1.746 0-3.16-.562-3.16-1.256s1.415-1.256 3.16-1.256c1.746 0 3.16.562 3.16 1.256s-1.415 1.256-3.16 1.256zm-76.985 20.674c-2.28 3.767-10.894 9.708-17.242 10.351-7.026.721-15.537-.822-18.634-4.604-1.297-1.58-5.122-15.503-1.034-24.117 3.359-7.076 12.922-8.236 13.412-8.295 8.875-1.057 24.978 1.092 27.381 5.532 3.328 6.172-3.883 21.132-3.883 21.132zm66.843 8.406c-3.714 2.419-11.601 2.833-17.597 2.341-5.963-.49-9.446-3.122-12.929-5.315l-4.667-5.575c-1.68-2.586-2.619-5.388-3.513-8.941-1.06-4.165-2.404-10.259.77-13.214 2.541-2.358 11.433-4.241 17.212-4.655 11.618-.857 25.363.429 26.982 9.325 1.541 8.409-1.344 22.864-6.257 26.034z" sketch:type="MSShapeGroup" fill="#FEFEFE"/></svg>