<?xml version="1.0" encoding="UTF-8" standalone="no"?>
<svg width="173px" height="45px" viewBox="0 0 173 45" version="1.1" xmlns="http://www.w3.org/2000/svg" xmlns:xlink="http://www.w3.org/1999/xlink" xmlns:sketch="http://www.bohemiancoding.com/sketch/ns">
    <!-- Generator: Sketch 3.1 (8751) - http://www.bohemiancoding.com/sketch -->
    <title>hero</title>
    <desc>Created with Sketch.</desc>
    <defs></defs>
    <g id="Page-1" stroke="none" stroke-width="1" fill="none" fill-rule="evenodd" sketch:type="MSPage">
        <g id="mobile-5" sketch:type="MSArtboardGroup" transform="translate(-352.000000, -800.000000)" fill="#FEFEFE">
            <g id="hero" sketch:type="MSLayerGroup" transform="translate(352.000000, 800.000000)">
                <path d="M52.9412553,31.9257692 C49.4875532,31.9257692 46.6870213,34.7365385 46.6870213,38.2067308 C46.6870213,41.6769231 49.4875532,44.4894231 52.9412553,44.4894231 C56.3966809,44.4894231 59.1972128,41.6769231 59.1972128,38.2067308 C59.1972128,34.7365385 56.3966809,31.9257692 52.9412553,31.9257692 L52.9412553,31.9257692 Z M52.9412553,42.6219231 C50.5147021,42.6219231 48.5465745,40.6453846 48.5465745,38.2067308 C48.5465745,35.7715385 50.5147021,33.7915385 52.9412553,33.7915385 C55.3695319,33.7915385 57.3376596,35.7715385 57.3376596,38.2067308 C57.339383,40.6453846 55.3695319,42.6219231 52.9412553,42.6219231 L52.9412553,42.6219231 Z" id="Shape" sketch:type="MSShapeGroup"></path>
                <path d="M119.397447,31.9257692 C115.940298,31.9257692 113.138043,34.7365385 113.138043,38.2067308 C113.138043,41.6769231 115.940298,44.4894231 119.397447,44.4894231 C122.851149,44.4894231 125.653404,41.6769231 125.653404,38.2067308 C125.653404,34.7365385 122.851149,31.9257692 119.397447,31.9257692 L119.397447,31.9257692 Z M119.397447,42.6219231 C116.967447,42.6219231 114.999319,40.6453846 114.999319,38.2067308 C114.999319,35.7715385 116.967447,33.7915385 119.397447,33.7915385 C121.824,33.7915385 123.792128,35.7715385 123.792128,38.2067308 C123.792128,40.6453846 121.824,42.6219231 119.397447,42.6219231 L119.397447,42.6219231 Z" id="Shape" sketch:type="MSShapeGroup"></path>
                <path d="M171.48734,11.1548077 C169.010809,13.9101923 165.617426,15.7275 162.310213,17.2678846 C157.127936,19.6840385 151.609596,21.3871154 146.111936,22.9032692 C129.312191,27.5365385 113.822234,29.3382692 96.6002553,31.6575 C96.6364468,31.2992308 96.6536809,30.9340385 96.6536809,30.5688462 C96.6536809,29.1669231 96.381383,27.8290385 95.886766,26.6105769 L111.528383,24.4540385 C111.528383,24.4540385 112.355617,24.2913462 112.331489,24.0698077 C112.307362,23.8482692 111.46117,23.8828846 111.46117,23.8828846 L95.3232128,25.4284615 C93.6877021,22.4982692 90.6975957,20.4317308 87.2042553,20.0907692 L86.652766,1.81038462 C86.652766,1.81038462 86.6355319,0 86.1702128,0 C85.7014468,0 85.6842128,1.81038462 85.6842128,1.81038462 L85.1413404,20.0890385 C81.6462766,20.4317308 78.6561702,22.4982692 77.0206596,25.4267308 L60.8792553,23.8811538 C60.8792553,23.8811538 60.038234,23.8465385 60.012383,24.0680769 C59.9848085,24.2896154 60.813766,24.4523077 60.813766,24.4523077 L76.4571064,26.6088462 C75.9624894,27.8273077 75.6867447,29.1669231 75.6867447,30.5671154 C75.6867447,30.9323077 75.7074255,31.2975 75.7453404,31.6557692 C58.5233617,29.3365385 43.0299574,27.5348077 26.2336596,22.9015385 C20.7325532,21.3853846 15.2176596,19.6840385 10.0302128,17.2661538 C6.71955319,15.7275 3.32617021,13.9101923 0.853085106,11.1548077 C0.413617021,10.665 -0.29987234,11.3867308 0.136148936,11.8730769 C0.211978723,11.9613462 0.289531915,12.0478846 0.370531915,12.1326923 C2.95046809,14.8603846 6.39555319,16.7296154 9.77859574,18.2630769 C14.9815532,20.6307692 20.4550851,22.3788462 25.9596383,23.8846154 C42.9679149,28.5317308 59.8297021,33.7880769 77.274,36.1401923 C77.2757234,36.1401923 77.2757234,36.1367308 77.2791702,36.1367308 C79.1318298,39.1153846 82.4166383,41.0936538 86.1719362,41.0936538 C89.9220638,41.0936538 93.213766,39.1136538 95.0664255,36.1367308 L95.0664255,36.1401923 C112.512447,33.7880769 129.375957,28.5317308 146.379064,23.8846154 C151.883617,22.3805769 157.358872,20.6307692 162.565277,18.2630769 C165.944872,16.7296154 169.388234,14.8603846 171.969894,12.1326923 C172.04917,12.0478846 172.128447,11.9613462 172.206,11.8730769 C172.642021,11.3867308 171.925085,10.665 171.48734,11.1548077 L171.48734,11.1548077 Z M92.4020426,28.5576923 C92.2331489,29.0336538 90.477,29.2742308 90.1237021,29.3157692 C90.1099149,29.3157692 90.0944043,29.3192308 90.0823404,29.3192308 C90.0651064,29.3244231 90.0564894,29.3244231 90.0564894,29.3244231 L86.840617,29.4144231 L85.4980851,29.4144231 L82.2839362,29.3244231 C82.2839362,29.3244231 82.2753191,29.3244231 82.2563617,29.3192308 C82.2425745,29.3192308 82.2253404,29.3157692 82.2184468,29.3157692 C81.8634255,29.2742308 80.1021064,29.0336538 79.9366596,28.5576923 C79.9125319,28.485 79.9177021,28.4123077 79.9418298,28.3361538 L79.9332128,28.3396154 C79.9332128,28.3396154 79.9401064,28.3223077 79.9504468,28.2928846 C79.9573404,28.2790385 79.9607872,28.2634615 79.9711277,28.2478846 C80.0934894,27.9467308 80.505383,26.9982692 80.8276596,26.8148077 C81.1223617,26.6434615 82.1805319,26.8148077 82.1805319,26.8148077 L85.4980851,27.1228846 L86.8388936,27.1228846 L90.1581702,26.8148077 C90.1581702,26.8148077 91.2163404,26.6434615 91.5093191,26.8148077 C91.8315957,26.9982692 92.241766,27.9467308 92.3658511,28.2478846 C92.3744681,28.2651923 92.3813617,28.2807692 92.3865319,28.2928846 C92.3985957,28.3240385 92.4072128,28.3396154 92.4072128,28.3396154 L92.3985957,28.3361538 C92.4192766,28.4123077 92.429617,28.485 92.4020426,28.5576923 L92.4020426,28.5576923 Z" id="Shape" sketch:type="MSShapeGroup"></path>
            </g>
        </g>
    </g>
</svg>