<svg width="173" height="45" xmlns="http://www.w3.org/2000/svg" xmlns:sketch="http://www.bohemiancoding.com/sketch/ns"><title>hero</title><desc>Created with Sketch.</desc><g sketch:type="MSLayerGroup" transform="translate(-352 -800)" fill="#FEFEFE"><path d="M404.941 831.926c-3.454 0-6.254 2.811-6.254 6.281 0 3.47 2.801 6.283 6.254 6.283 3.455 0 6.256-2.813 6.256-6.283s-2.801-6.281-6.256-6.281zm0 10.696c-2.427 0-4.395-1.977-4.395-4.415 0-2.435 1.968-4.415 4.395-4.415 2.428 0 4.396 1.98 4.396 4.415.002 2.439-1.968 4.415-4.396 4.415z" id="Shape" sketch:type="MSShapeGroup"/><path d="M471.397 831.926c-3.457 0-6.259 2.811-6.259 6.281 0 3.47 2.802 6.283 6.259 6.283 3.454 0 6.256-2.813 6.256-6.283s-2.802-6.281-6.256-6.281zm0 10.696c-2.43 0-4.398-1.977-4.398-4.415 0-2.435 1.968-4.415 4.398-4.415 2.427 0 4.395 1.98 4.395 4.415 0 2.439-1.968 4.415-4.395 4.415z" id="Shape" sketch:type="MSShapeGroup"/><path d="M523.487 811.155c-2.477 2.755-5.87 4.573-9.177 6.113-5.182 2.416-10.701 4.119-16.198 5.635-16.8 4.633-32.29 6.435-49.512 8.754.036-.358.053-.723.053-1.089 0-1.402-.272-2.74-.767-3.958l15.642-2.157s.827-.163.803-.384c-.024-.222-.87-.187-.87-.187l-16.138 1.546c-1.636-2.93-4.626-4.997-8.119-5.338l-.551-18.28s-.017-1.81-.483-1.81c-.469 0-.486 1.81-.486 1.81l-.543 18.279c-3.495.343-6.485 2.409-8.121 5.338l-16.141-1.546s-.841-.035-.867.187c-.028.222.801.384.801.384l15.643 2.157c-.495 1.218-.77 2.558-.77 3.958 0 .365.021.73.059 1.089-17.222-2.319-32.715-4.121-49.512-8.754-5.501-1.516-11.016-3.218-16.203-5.635-3.311-1.539-6.704-3.356-9.177-6.111-.439-.49-1.153.232-.717.718l.234.26c2.58 2.728 6.025 4.597 9.408 6.13 5.203 2.368 10.676 4.116 16.181 5.622 17.008 4.647 33.87 9.903 51.314 12.256l.005-.003c1.853 2.979 5.137 4.957 8.893 4.957 3.75 0 7.042-1.98 8.894-4.957v.003c17.446-2.352 34.31-7.608 51.313-12.256 5.505-1.504 10.98-3.254 16.186-5.622 3.38-1.533 6.823-3.403 9.405-6.13l.236-.26c.436-.486-.281-1.208-.719-.718zm-79.085 17.403c-.169.476-1.925.717-2.278.758l-.041.003-.026.005-3.216.09h-1.343l-3.214-.09-.028-.005-.038-.003c-.355-.042-2.116-.282-2.282-.758-.024-.073-.019-.145.005-.222l-.009.003.017-.047.021-.045c.122-.301.534-1.25.857-1.433.295-.171 1.353 0 1.353 0l3.318.308h1.341l3.319-.308s1.058-.171 1.351 0c.322.183.732 1.132.857 1.433l.021.045.021.047-.009-.003c.021.076.031.149.003.222z" sketch:type="MSShapeGroup"/></g></svg>