<?xml version="1.0" encoding="UTF-8" standalone="no"?>
<svg width="38px" height="23px" viewBox="0 0 38 23" version="1.1" xmlns="http://www.w3.org/2000/svg" xmlns:xlink="http://www.w3.org/1999/xlink" xmlns:sketch="http://www.bohemiancoding.com/sketch/ns">
    <!-- Generator: Sketch 3.1 (8751) - http://www.bohemiancoding.com/sketch -->
    <title>shortwave</title>
    <desc>Created with Sketch.</desc>
    <defs></defs>
    <g id="Page-1" stroke="none" stroke-width="1" fill="none" fill-rule="evenodd" sketch:type="MSPage">
        <g id="mobile-5" sketch:type="MSArtboardGroup" transform="translate(-542.000000, -654.000000)" fill="#FEFEFE">
            <path d="M579.74008,671.549698 C577.52088,671.549698 576.10348,667.80856 574.604,663.846663 C572.9472,659.472077 571.23454,654.947284 568.14134,654.947284 C565.2522,654.947284 563.55284,659.851767 561.75278,665.043008 C561.6384,665.372629 561.5244,665.700353 561.40964,666.030353 C559.65822,668.16587 557.75252,670.19025 554.62322,670.19025 C551.25908,670.19025 549.68588,667.508525 548.16436,664.91556 C547.02892,662.976525 544.89712,659.775905 542.2603,659.775905 C542.1159,659.775905 542,659.912836 542,660.079732 C542,660.246629 542.1159,660.379767 542.26068,660.379767 C544.99934,660.379767 546.36886,664.087525 547.81856,668.01225 C549.391,672.273801 551.0193,676.68025 554.6236,676.68025 C558.20852,676.68025 560.21226,671.101732 562.12366,665.593388 C563.8576,663.450663 565.50338,661.437284 568.14172,661.437284 C570.99742,661.437284 572.65612,664.213456 574.25934,666.897456 C575.43202,668.85887 577.625,672.15356 579.74046,672.15356 C579.88334,672.15356 580.00038,672.018525 580.00038,671.851629 C580.00038,671.684732 579.88296,671.549698 579.74008,671.549698 L579.74008,671.549698 Z M574.24794,664.75056 C574.36118,665.021008 574.47252,665.28956 574.58576,665.556215 C574.55042,665.480353 574.51508,665.406008 574.48012,665.330146 C572.84004,661.783215 571.1422,658.116043 568.14172,658.116043 C566.09124,658.116043 564.6366,659.995905 563.3009,662.451939 C564.66282,659.34956 566.11024,656.908698 568.14172,656.908698 C570.9826,656.908698 572.6432,660.896388 574.24794,664.75056 L574.24794,664.75056 Z M548.175,667.10456 C548.07202,666.850801 547.96904,666.600836 547.86682,666.35087 C547.8919,666.40625 547.91698,666.462008 547.94206,666.51587 C549.50082,669.955077 551.11202,673.511112 554.6236,673.511112 C557.07574,673.511112 558.78726,671.553491 560.24646,669.032594 C558.77586,672.197939 557.0727,674.718456 554.6236,674.718456 C551.27352,674.718836 549.69728,670.847594 548.175,667.10456 L548.175,667.10456 Z M547.60804,665.141629 C547.72014,665.360112 547.83262,665.578594 547.94472,665.80087 C549.50424,668.849388 551.11658,672.001836 554.6236,672.001836 C557.17758,672.001836 558.92938,670.294181 560.43038,668.14956 C558.91988,670.935215 557.17758,673.20956 554.6236,673.20956 C551.26972,673.20956 549.69462,669.736974 548.1731,666.377043 C547.98386,665.960181 547.79652,665.547112 547.60804,665.141629 L547.60804,665.141629 Z M568.14172,658.42025 C570.98602,658.42025 572.6451,662.00587 574.25174,665.473146 C574.44668,665.895319 574.63972,666.314077 574.83428,666.72525 C574.71534,666.499181 574.59678,666.269698 574.47784,666.041732 C572.83586,662.887767 571.13802,659.626077 568.14134,659.626077 C565.99282,659.626077 564.49904,661.289353 563.10368,663.402491 C564.52184,660.646422 566.00992,658.42025 568.14172,658.42025 L568.14172,658.42025 Z M568.14172,655.551146 C570.31456,655.551146 571.79504,658.253353 573.10338,661.453974 C571.82126,658.762767 570.32748,656.609043 568.14172,656.609043 C566.55142,656.609043 565.32136,657.957491 564.22468,659.933698 C565.34378,657.366146 566.57004,655.551146 568.14172,655.551146 L568.14172,655.551146 Z M554.6236,670.492181 C557.2798,670.492181 559.06846,669.099353 560.61202,667.393594 C559.06086,669.738491 557.28436,671.699905 554.6236,671.699905 C551.26516,671.699905 549.69082,668.621801 548.1693,665.64725 C547.8881,665.095353 547.60424,664.54156 547.30746,664.006353 C547.52368,664.358353 547.7361,664.719456 547.95042,665.084353 C549.50994,667.743698 551.12228,670.492181 554.6236,670.492181 L554.6236,670.492181 Z M554.6236,676.078284 C552.0434,676.078284 550.52948,673.433353 549.26332,670.308974 C550.5177,672.924319 552.06582,675.020767 554.6236,675.020767 C556.57756,675.020767 558.05994,673.533491 559.31888,671.40556 C558.04968,674.122181 556.573,676.078284 554.6236,676.078284 L554.6236,676.078284 Z M568.14172,661.135353 C565.9058,661.135353 564.37326,662.498594 562.92584,664.185767 C564.3934,661.85756 565.91302,659.927629 568.14172,659.927629 C570.99172,659.927629 572.64852,663.114974 574.25364,666.19687 C574.49304,666.654319 574.73054,667.10987 574.96994,667.550629 C574.80464,667.278284 574.63782,667.002525 574.47252,666.724491 C572.83054,663.976388 571.1327,661.135353 568.14172,661.135353 L568.14172,661.135353 Z" id="shortwave" sketch:type="MSShapeGroup"></path>
        </g>
    </g>
</svg>