<?xml version="1.0" encoding="UTF-8" standalone="no"?>
<svg width="21px" height="63px" viewBox="0 0 21 63" version="1.1" xmlns="http://www.w3.org/2000/svg" xmlns:xlink="http://www.w3.org/1999/xlink" xmlns:sketch="http://www.bohemiancoding.com/sketch/ns">
    <!-- Generator: Sketch 3.3.3 (12072) - http://www.bohemiancoding.com/sketch -->
    <title>tie</title>
    <desc>Created with Sketch.</desc>
    <defs></defs>
    <g id="Page-1" stroke="none" stroke-width="1" fill="none" fill-rule="evenodd" sketch:type="MSPage">
        <g id="mobile-5" sketch:type="MSArtboardGroup" transform="translate(-428.000000, -792.000000)" fill="#FFFFFF">
            <g id="tie" sketch:type="MSLayerGroup" transform="translate(428.000000, 792.000000)">
                <g id="bottom" transform="translate(0.000000, 38.011173)" sketch:type="MSShapeGroup">
                    <path d="M2.9183,0.587765363 C2.4563,-0.0316759777 1.9649,0.0844692737 1.8249,0.846100559 L0.1946,9.76112849 C0.0553,10.5227598 0.3178,11.6532402 0.7784,12.2740894 L9.7195,24.3292626 C10.1801,24.9501117 10.934,24.9508156 11.3953,24.3306704 L15.1648,19.262514 C15.6261,18.6423687 15.6254,17.6287374 15.1634,17.0092961 L2.9183,0.587765363 L2.9183,0.587765363 Z"></path>
                </g>
                <g id="body" transform="translate(2.450000, 10.558659)" sketch:type="MSShapeGroup">
                    <path d="M13.734,43.0912961 C14.196,43.7107374 14.9513,43.7100335 15.4126,43.0898883 L17.8276,39.8427486 C18.2889,39.2226034 18.5542,38.0921229 18.4184,37.3297877 L11.9728,1.386 C11.837,0.623664804 11.095,0 10.325,0 L5.95,0 C5.18,0 4.4359,0.622960894 4.2966,1.38459218 L0.2835,23.3311173 C0.1442,24.0927486 0.4081,25.2225251 0.8701,25.8412626 L13.734,43.0912961 L13.734,43.0912961 Z"></path>
                </g>
                <g id="neck" transform="translate(5.250000, 0.000000)" sketch:type="MSShapeGroup">
                    <path d="M9.24,5.66859218 C9.065,6.42248045 8.2915,7.03910615 7.5215,7.03910615 L3.094,7.03910615 C2.324,7.03910615 1.5505,6.42248045 1.3755,5.66859218 L0.3766,1.37121788 C0.2016,0.616625698 0.6874,0 1.4581,0 L9.1581,0 C9.9281,0 10.4146,0.616625698 10.2396,1.37051397 L9.24,5.66859218 L9.24,5.66859218 Z"></path>
                </g>
            </g>
        </g>
    </g>
</svg>