<?xml version="1.0" encoding="UTF-8" standalone="no"?>
<svg width="135px" height="45px" viewBox="0 0 135 45" version="1.1" xmlns="http://www.w3.org/2000/svg" xmlns:xlink="http://www.w3.org/1999/xlink" xmlns:sketch="http://www.bohemiancoding.com/sketch/ns">
    <!-- Generator: Sketch 3.1 (8751) - http://www.bohemiancoding.com/sketch -->
    <title>alonso</title>
    <desc>Created with Sketch.</desc>
    <defs></defs>
    <g id="Page-1" stroke="none" stroke-width="1" fill="none" fill-rule="evenodd" sketch:type="MSPage">
        <g id="mobile-5" sketch:type="MSArtboardGroup" transform="translate(-157.000000, -804.000000)" fill="#FEFEFE">
            <path d="M291.917366,807.810384 C275.782877,803.967048 259.127572,803.308628 243.42761,806.24855 C238.002193,807.259149 232.672311,809.295658 227.387114,809.755021 C218.881491,810.474689 213.288119,807.657263 206.277143,806.24855 C190.575639,803.10957 172.177607,803.155507 157,807.029467 C157,810.000014 157.231131,812.756192 157.785846,815.190815 C158.047794,816.216726 159.218858,816.32391 159.742755,816.737337 C162.716642,819.156648 162.932364,826.429894 164.041793,830.732594 C165.736754,837.408668 168.35624,842.950116 173.471941,845.998754 C182.902088,851.58767 206.831858,848.73962 213.411389,835.142478 C214.089373,833.243778 218.28055,821.591272 221.131166,818.299171 C222.225187,817.028267 226.847808,817.1967 227.972646,818.22261 C231.792472,824.224952 232.410362,831.054148 236.385817,836.168388 C244.167229,846.1825 254.136682,849.016769 262.195452,848.999925 C267.294203,848.986145 273.875275,848.188384 277.447021,845.89157 C285.538149,840.685457 283.997275,827.670174 288.003547,818.299171 C288.4504,817.058891 290.77712,817.671375 291.146929,816.354534 C291.670826,813.858663 292.210132,809.877517 291.917366,807.810384 L291.917366,807.810384 Z M163.904655,812.554072 C162.158845,812.554072 160.744323,811.992118 160.744323,811.29848 C160.744323,810.604842 162.158845,810.042888 163.904655,810.042888 C165.650465,810.042888 167.064987,810.604842 167.064987,811.29848 C167.064987,811.992118 165.650465,812.554072 163.904655,812.554072 L163.904655,812.554072 Z M275.491652,843.166016 C271.778146,845.585328 263.890413,845.998754 257.894873,845.507236 C251.931692,845.017249 248.449317,842.3851 244.965402,840.192407 L240.298095,834.617273 C238.618543,832.031059 237.67861,829.228946 236.784903,825.676539 C235.724782,821.511649 234.38114,815.417434 237.55534,812.462199 C240.096241,810.104136 248.988623,808.220748 254.7669,807.807322 C266.385088,806.949844 280.129682,808.236061 281.74914,817.132389 C283.290014,825.541793 280.405498,839.996412 275.491652,843.166016 L275.491652,843.166016 Z M208.648548,834.759675 C206.368055,838.526451 197.75457,844.467545 191.40617,845.110653 C184.379786,845.831853 175.86954,844.288393 172.772384,840.506305 C169.699882,838.62598 166.642788,826.583015 166.767599,821.024724 C167.029547,809.724396 173.408765,809.505433 185.150223,808.09672 C194.025656,807.040186 210.127787,809.188473 212.53155,813.628981 C215.859837,819.799756 208.648548,834.759675 208.648548,834.759675 L208.648548,834.759675 Z M285.633683,814.085282 C283.887873,814.085282 282.473351,813.523328 282.473351,812.82969 C282.473351,812.136052 283.887873,811.574098 285.633683,811.574098 C287.379493,811.574098 288.794015,812.136052 288.794015,812.82969 C288.794015,813.523328 287.379493,814.085282 285.633683,814.085282 L285.633683,814.085282 Z M208.648548,834.759675 C206.368055,838.526451 197.75457,844.467545 191.40617,845.110653 C184.379786,845.831853 175.86954,844.288393 172.772384,840.506305 C171.474968,838.926097 167.650519,825.002807 171.738458,816.389752 C175.097562,809.314032 184.660225,808.153375 185.150223,808.095189 C194.025656,807.038655 210.127787,809.186942 212.53155,813.62745 C215.859837,819.799756 208.648548,834.759675 208.648548,834.759675 L208.648548,834.759675 Z M275.491652,843.166016 C271.778146,845.585328 263.890413,845.998754 257.894873,845.507236 C251.931692,845.017249 248.449317,842.3851 244.965402,840.192407 L240.298095,834.617273 C238.618543,832.031059 237.67861,829.228946 236.784903,825.676539 C235.724782,821.511649 234.38114,815.417434 237.55534,812.462199 C240.096241,810.104136 248.988623,808.220748 254.7669,807.807322 C266.385088,806.949844 280.129682,808.236061 281.74914,817.132389 C283.290014,825.541793 280.405498,839.996412 275.491652,843.166016 L275.491652,843.166016 Z" id="alonso" sketch:type="MSShapeGroup"></path>
        </g>
    </g>
</svg>