<?xml version="1.0" encoding="UTF-8" standalone="no"?>
<svg width="69px" height="23px" viewBox="0 0 69 23" version="1.1" xmlns="http://www.w3.org/2000/svg" xmlns:xlink="http://www.w3.org/1999/xlink" xmlns:sketch="http://www.bohemiancoding.com/sketch/ns">
    <!-- Generator: Sketch 3.1 (8751) - http://www.bohemiancoding.com/sketch -->
    <title>alonso</title>
    <desc>Created with Sketch.</desc>
    <defs></defs>
    <g id="Page-1" stroke="none" stroke-width="1" fill="none" fill-rule="evenodd" sketch:type="MSPage">
        <g id="mobile-5" sketch:type="MSArtboardGroup" transform="translate(-190.000000, -815.000000)" fill="#FEFEFE">
            <path d="M258.123218,817.093 C250.059345,815.168667 241.735172,814.839 233.888471,816.311 C231.176897,816.817 228.513069,817.836667 225.871575,818.066667 C221.62054,818.427 218.825023,817.016333 215.321,816.311 C207.473529,814.739333 198.278356,814.762333 190.692724,816.702 C190.692724,818.189333 190.808241,819.569333 191.085483,820.788333 C191.216402,821.302 191.80169,821.355667 192.063529,821.562667 C193.549851,822.774 193.657667,826.415667 194.212149,828.57 C195.059276,831.912667 196.368471,834.687233 198.925253,836.213667 C203.638356,839.012 215.598241,837.586 218.886632,830.778 C219.225483,829.827333 221.320195,823.993 222.744908,822.344667 C223.29169,821.708333 225.602034,821.792667 226.164218,822.306333 C228.073333,825.311667 228.382149,828.731 230.369046,831.291667 C234.258126,836.305667 239.24077,837.724767 243.268471,837.716333 C245.816782,837.709433 249.105943,837.31 250.891069,836.16 C254.934943,833.553333 254.164828,827.036667 256.167126,822.344667 C256.39046,821.723667 257.553333,822.030333 257.738161,821.371 C258,820.121333 258.26954,818.128 258.123218,817.093 L258.123218,817.093 Z M194.143609,819.468133 C193.271069,819.468133 192.564103,819.186767 192.564103,818.839467 C192.564103,818.492167 193.271069,818.2108 194.143609,818.2108 C195.016149,818.2108 195.723115,818.492167 195.723115,818.839467 C195.723115,819.186767 195.016149,819.468133 194.143609,819.468133 L194.143609,819.468133 Z M249.913793,834.795333 C248.057816,836.006667 244.115598,836.213667 241.11908,835.967567 C238.138736,835.722233 236.398276,834.404333 234.657046,833.306467 L232.324368,830.515033 C231.484943,829.220133 231.015172,827.817133 230.568506,826.038467 C230.038667,823.953133 229.367126,820.9018 230.953563,819.422133 C232.223483,818.241467 236.667816,817.298467 239.555747,817.091467 C245.362414,816.662133 252.231839,817.306133 253.04123,821.760467 C253.811345,825.971 252.36969,833.208333 249.913793,834.795333 L249.913793,834.795333 Z M216.506207,830.586333 C215.366437,832.472333 211.061494,835.447 207.888621,835.769 C204.376897,836.1301 200.123552,835.3573 198.575621,833.463633 C197.040011,832.522167 195.512103,826.492333 195.574483,823.709333 C195.705402,818.051333 198.893678,817.9417 204.761954,817.236367 C209.197816,816.707367 217.245517,817.783 218.446897,820.006333 C220.110345,823.096 216.506207,830.586333 216.506207,830.586333 L216.506207,830.586333 Z M254.98269,820.2348 C254.110149,820.2348 253.403184,819.953433 253.403184,819.606133 C253.403184,819.258833 254.110149,818.977467 254.98269,818.977467 C255.85523,818.977467 256.562195,819.258833 256.562195,819.606133 C256.562195,819.953433 255.85523,820.2348 254.98269,820.2348 L254.98269,820.2348 Z M216.506207,830.586333 C215.366437,832.472333 211.061494,835.447 207.888621,835.769 C204.376897,836.1301 200.123552,835.3573 198.575621,833.463633 C197.927184,832.672433 196.015759,825.701133 198.058874,821.388633 C199.737724,817.845867 204.517057,817.264733 204.761954,817.2356 C209.197816,816.7066 217.245517,817.782233 218.446897,820.005567 C220.110345,823.096 216.506207,830.586333 216.506207,830.586333 L216.506207,830.586333 Z M249.913793,834.795333 C248.057816,836.006667 244.115598,836.213667 241.11908,835.967567 C238.138736,835.722233 236.398276,834.404333 234.657046,833.306467 L232.324368,830.515033 C231.484943,829.220133 231.015172,827.817133 230.568506,826.038467 C230.038667,823.953133 229.367126,820.9018 230.953563,819.422133 C232.223483,818.241467 236.667816,817.298467 239.555747,817.091467 C245.362414,816.662133 252.231839,817.306133 253.04123,821.760467 C253.811345,825.971 252.36969,833.208333 249.913793,834.795333 L249.913793,834.795333 Z" id="alonso" sketch:type="MSShapeGroup"></path>
        </g>
    </g>
</svg>