<?xml version="1.0" encoding="UTF-8" standalone="no"?>
<svg width="38px" height="39px" viewBox="0 0 38 39" version="1.1" xmlns="http://www.w3.org/2000/svg" xmlns:xlink="http://www.w3.org/1999/xlink" xmlns:sketch="http://www.bohemiancoding.com/sketch/ns">
    <!-- Generator: Sketch 3.1 (8751) - http://www.bohemiancoding.com/sketch -->
    <title>hashtag</title>
    <desc>Created with Sketch.</desc>
    <defs></defs>
    <g id="Page-1" stroke="none" stroke-width="1" fill="none" fill-rule="evenodd" sketch:type="MSPage">
        <g id="mobile-5" sketch:type="MSArtboardGroup" transform="translate(-496.000000, -440.000000)" fill="#FEFEFE">
            <path d="M510.418766,455 L510.418766,464 L519.868741,464 L519.868741,464 L519.868741,455 L510.418766,455 Z M510.418766,448 L510.418766,440.5 L503.418766,440.5 L503.418766,448 L496,448 L496,455 L503.418766,455 L503.418766,464 L503.418766,464 L496,464 L496,471 L503.418766,471 L503.418766,478.5 L510.418766,478.5 L510.418766,471 L519.868741,471 L519.868741,478.5 L526.868741,478.5 L526.868741,471 L534,471 L534,464 L526.868741,464 L526.868741,455 L534,455 L534,448 L526.868741,448 L526.868741,440.5 L519.868741,440.5 L519.868741,448 L510.418766,448 Z" id="hashtag" sketch:type="MSShapeGroup"></path>
        </g>
    </g>
</svg>