<?xml version="1.0" encoding="UTF-8" standalone="no"?>
<svg width="36px" height="36px" viewBox="0 0 36 36" version="1.1" xmlns="http://www.w3.org/2000/svg" xmlns:xlink="http://www.w3.org/1999/xlink" xmlns:sketch="http://www.bohemiancoding.com/sketch/ns">
    <!-- Generator: Sketch 3.1 (8751) - http://www.bohemiancoding.com/sketch -->
    <title>Rectangle 329</title>
    <desc>Created with Sketch.</desc>
    <defs></defs>
    <g id="Page-1" stroke="none" stroke-width="1" fill="none" fill-rule="evenodd" sketch:type="MSPage">
        <g id="mobile-5" sketch:type="MSArtboardGroup" transform="translate(-498.000000, -444.000000)" fill="#FEFEFE">
            <path d="M512.193094,458.327242 L512.193094,464.76932 L519.789641,464.76932 L519.789641,464.76932 L519.789641,458.327242 L512.193094,458.327242 Z M512.193094,450.730695 L512.193094,444 L504.596547,444 L504.596547,450.730695 L498.443087,450.730695 L498.443087,458.327242 L504.596547,458.327242 L504.596547,464.76932 L504.596547,464.76932 L498.443087,464.76932 L498.443087,472.365867 L504.596547,472.365867 L504.596547,479.096562 L512.193094,479.096562 L512.193094,472.365867 L519.789641,472.365867 L519.789641,479.096562 L527.386188,479.096562 L527.386188,472.365867 L533.539649,472.365867 L533.539649,464.76932 L527.386188,464.76932 L527.386188,458.327242 L533.539649,458.327242 L533.539649,450.730695 L527.386188,450.730695 L527.386188,444 L519.789641,444 L519.789641,450.730695 L512.193094,450.730695 Z" id="Rectangle-329" sketch:type="MSShapeGroup"></path>
        </g>
    </g>
</svg>