<?xml version="1.0" encoding="utf-8"?>
<!-- Generator: Adobe Illustrator 15.1.0, SVG Export Plug-In . SVG Version: 6.00 Build 0)  -->
<!DOCTYPE svg PUBLIC "-//W3C//DTD SVG 1.1//EN" "http://www.w3.org/Graphics/SVG/1.1/DTD/svg11.dtd">
<svg version="1.1" id="Layer_1" xmlns="http://www.w3.org/2000/svg" xmlns:xlink="http://www.w3.org/1999/xlink" x="0px" y="0px"
	 width="42.103px" height="100px" viewBox="0 0 42.103 100" enable-background="new 0 0 42.103 100" xml:space="preserve">
<path fill="#FEFEFE" d="M11.804,62.666h18.469c-1.577,2.285-3.434,4.057-5.148,5.373c-2.895,2.221-5.388,3.184-5.448,3.205
	c-0.188,0.068-1.373,0.52-3.064,1.434c-0.006,0.004-0.012,0.008-0.02,0.01c-1.879,1.019-4.382,2.606-6.879,4.898
	C4.836,82.064,0.001,89.221,0.001,100h8c0-0.697,0.038-1.367,0.089-2.025h25.925c0.051,0.658,0.088,1.328,0.088,2.025h8
	c0-10.768-4.823-17.919-9.697-22.398c-1.912,1.451-3.686,2.525-4.996,3.234l-0.221,0.117c-0.805,0.427-1.493,0.755-2.041,1.002
	c1.744,1.334,3.629,3.134,5.221,5.477H11.734c1.593-2.342,3.479-4.144,5.228-5.479c2.803-2.145,5.243-3.11,5.483-3.201
	c0.184-0.066,1.358-0.518,3.042-1.424c0.007-0.003,0.013-0.008,0.021-0.01c1.879-1.014,4.385-2.604,6.885-4.9
	c4.877-4.48,9.711-11.633,9.711-22.415c0-10.777-4.83-17.932-9.709-22.411c-2.987,2.27-5.707,3.665-7.246,4.362
	c1.744,1.336,3.631,3.136,5.223,5.478H11.74c1.841-2.713,4.076-4.704,6.033-6.084c1.026-0.724,1.96-1.274,2.731-1.683l2.688-1.217
	c1.386-0.595,4.466-2.09,7.752-4.778C36.261,19.319,42.101,11.85,42.101,0h-8c0,0.736-0.059,1.428-0.117,2.12H8.101
	C8.041,1.433,8,0.731,8,0H0c0,10.776,4.831,17.93,9.71,22.411c2.987-2.27,5.707-3.666,7.248-4.364
	c-1.721-1.315-3.578-3.087-5.154-5.381h18.478c-4.147,6.036-10.236,8.438-10.624,8.584c-0.785,0.289-19.657,7.453-19.657,28.751
	c0,10.774,4.828,17.927,9.706,22.407c1.575-1.199,3.238-2.294,5.004-3.249c0.889-0.479,1.65-0.845,2.246-1.112
	C15.234,66.73,13.378,64.959,11.804,62.666z M33.517,5.32c-0.346,1.51-0.836,2.88-1.416,4.146H9.993
	C9.417,8.204,8.937,6.825,8.594,5.32H33.517z M8.57,94.775c0.337-1.506,0.809-2.883,1.378-4.146h22.208
	c0.568,1.264,1.041,2.641,1.377,4.146H8.57z M34.001,52.12H8.099C8.041,51.432,8,50.732,8,50.001c0-0.696,0.034-1.368,0.088-2.026
	h25.925c0.053,0.657,0.088,1.328,0.088,2.026C34.101,50.732,34.06,51.434,34.001,52.12z M32.155,40.631
	c0.569,1.261,1.042,2.64,1.378,4.144H8.562c0.336-1.503,0.809-2.882,1.377-4.144H32.155z M9.991,59.466
	c-0.577-1.261-1.054-2.641-1.397-4.146h24.91c-0.346,1.505-0.828,2.883-1.407,4.146H9.991z"/>
</svg>
