<?xml version="1.0" encoding="UTF-8" standalone="no"?>
<svg width="87px" height="23px" viewBox="0 0 87 23" version="1.1" xmlns="http://www.w3.org/2000/svg" xmlns:xlink="http://www.w3.org/1999/xlink" xmlns:sketch="http://www.bohemiancoding.com/sketch/ns">
    <!-- Generator: Sketch 3.1 (8751) - http://www.bohemiancoding.com/sketch -->
    <title>plane</title>
    <desc>Created with Sketch.</desc>
    <defs></defs>
    <g id="Page-1" stroke="none" stroke-width="1" fill="none" fill-rule="evenodd" sketch:type="MSPage">
        <g id="mobile-5" sketch:type="MSArtboardGroup" transform="translate(-394.000000, -810.000000)" fill="#FEFEFE">
            <g id="plane" sketch:type="MSLayerGroup" transform="translate(394.914894, 810.563767)">
                <path d="M26.4706277,15.9628846 C24.7437766,15.9628846 23.3435106,17.3682692 23.3435106,19.1033654 C23.3435106,20.8384615 24.7437766,22.2447115 26.4706277,22.2447115 C28.1983404,22.2447115 29.5986064,20.8384615 29.5986064,19.1033654 C29.5986064,17.3682692 28.1983404,15.9628846 26.4706277,15.9628846 L26.4706277,15.9628846 Z M26.4706277,21.3109615 C25.2573511,21.3109615 24.2732872,20.3226923 24.2732872,19.1033654 C24.2732872,17.8857692 25.2573511,16.8957692 26.4706277,16.8957692 C27.684766,16.8957692 28.6688298,17.8857692 28.6688298,19.1033654 C28.6696915,20.3226923 27.684766,21.3109615 26.4706277,21.3109615 L26.4706277,21.3109615 Z" id="Shape" sketch:type="MSShapeGroup"></path>
                <path d="M59.6987234,15.9628846 C57.9701489,15.9628846 56.5690213,17.3682692 56.5690213,19.1033654 C56.5690213,20.8384615 57.9701489,22.2447115 59.6987234,22.2447115 C61.4255745,22.2447115 62.8267021,20.8384615 62.8267021,19.1033654 C62.8267021,17.3682692 61.4255745,15.9628846 59.6987234,15.9628846 L59.6987234,15.9628846 Z M59.6987234,21.3109615 C58.4837234,21.3109615 57.4996596,20.3226923 57.4996596,19.1033654 C57.4996596,17.8857692 58.4837234,16.8957692 59.6987234,16.8957692 C60.912,16.8957692 61.8960638,17.8857692 61.8960638,19.1033654 C61.8960638,20.3226923 60.912,21.3109615 59.6987234,21.3109615 L59.6987234,21.3109615 Z" id="Shape" sketch:type="MSShapeGroup"></path>
                <path d="M85.7436702,5.57740385 C84.5054043,6.95509615 82.8087128,7.86375 81.1551064,8.63394231 C78.5639681,9.84201923 75.8047979,10.6935577 73.0559681,11.4516346 C64.6560957,13.7682692 56.911117,14.6691346 48.3001277,15.82875 C48.3182234,15.6496154 48.3268404,15.4670192 48.3268404,15.2844231 C48.3268404,14.5834615 48.1906915,13.9145192 47.943383,13.3052885 L55.7641915,12.2270192 C55.7641915,12.2270192 56.1778085,12.1456731 56.1657447,12.0349038 C56.1536809,11.9241346 55.7305851,11.9414423 55.7305851,11.9414423 L47.6616064,12.7142308 C46.8438511,11.2491346 45.3487979,10.2158654 43.6021277,10.0453846 L43.326383,0.905192308 C43.326383,0.905192308 43.317766,0 43.0851064,0 C42.8507234,0 42.8421064,0.905192308 42.8421064,0.905192308 L42.5706702,10.0445192 C40.8231383,10.2158654 39.3280851,11.2491346 38.5103298,12.7133654 L30.4396277,11.9405769 C30.4396277,11.9405769 30.019117,11.9232692 30.0061915,12.0340385 C29.9924043,12.1448077 30.406883,12.2261538 30.406883,12.2261538 L38.2285532,13.3044231 C37.9812447,13.9136538 37.8433723,14.5834615 37.8433723,15.2835577 C37.8433723,15.4661538 37.8537128,15.64875 37.8726702,15.8278846 C29.2616809,14.6682692 21.5149787,13.7674038 13.1168298,11.4507692 C10.3662766,10.6926923 7.60882979,9.84201923 5.01510638,8.63307692 C3.3597766,7.86375 1.66308511,6.95509615 0.426542553,5.57740385 C0.206808511,5.3325 -0.14993617,5.69336538 0.0680744681,5.93653846 C0.105989362,5.98067308 0.144765957,6.02394231 0.185265957,6.06634615 C1.47523404,7.43019231 3.1977766,8.36480769 4.88929787,9.13153846 C7.4907766,10.3153846 10.2275426,11.1894231 12.9798191,11.9423077 C21.4839574,14.2658654 29.9148511,16.8940385 38.637,18.0700962 C38.6378617,18.0700962 38.6378617,18.0683654 38.6395851,18.0683654 C39.5659149,19.5576923 41.2083191,20.5468269 43.0859681,20.5468269 C44.9610319,20.5468269 46.606883,19.5568269 47.5332128,18.0683654 L47.5332128,18.0700962 C56.2562234,16.8940385 64.6879787,14.2658654 73.1895319,11.9423077 C75.9418085,11.1902885 78.6794362,10.3153846 81.2826383,9.13153846 C82.9724362,8.36480769 84.694117,7.43019231 85.9849468,6.06634615 C86.0245851,6.02394231 86.0642234,5.98067308 86.103,5.93653846 C86.3210106,5.69336538 85.9625426,5.3325 85.7436702,5.57740385 L85.7436702,5.57740385 Z M46.2010213,14.2788462 C46.1165745,14.5168269 45.2385,14.6371154 45.0618511,14.6578846 C45.0549574,14.6578846 45.0472021,14.6596154 45.0411702,14.6596154 C45.0325532,14.6622115 45.0282447,14.6622115 45.0282447,14.6622115 L43.4203085,14.7072115 L42.7490426,14.7072115 L41.1419681,14.6622115 C41.1419681,14.6622115 41.1376596,14.6622115 41.1281809,14.6596154 C41.1212872,14.6596154 41.1126702,14.6578846 41.1092234,14.6578846 C40.9317128,14.6371154 40.0510532,14.5168269 39.9683298,14.2788462 C39.956266,14.2425 39.9588511,14.2061538 39.9709149,14.1680769 L39.9666064,14.1698077 C39.9666064,14.1698077 39.9700532,14.1611538 39.9752234,14.1464423 C39.9786702,14.1395192 39.9803936,14.1317308 39.9855638,14.1239423 C40.0467447,13.9733654 40.2526915,13.4991346 40.4138298,13.4074038 C40.5611809,13.3217308 41.090266,13.4074038 41.090266,13.4074038 L42.7490426,13.5614423 L43.4194468,13.5614423 L45.0790851,13.4074038 C45.0790851,13.4074038 45.6081702,13.3217308 45.7546596,13.4074038 C45.9157979,13.4991346 46.120883,13.9733654 46.1829255,14.1239423 C46.187234,14.1325962 46.1906809,14.1403846 46.193266,14.1464423 C46.1992979,14.1620192 46.2036064,14.1698077 46.2036064,14.1698077 L46.1992979,14.1680769 C46.2096383,14.2061538 46.2148085,14.2425 46.2010213,14.2788462 L46.2010213,14.2788462 Z" id="Shape" sketch:type="MSShapeGroup"></path>
            </g>
        </g>
    </g>
</svg>