<?xml version="1.0" encoding="UTF-8" standalone="no"?>
<svg width="50px" height="75px" viewBox="0 0 50 75" version="1.1" xmlns="http://www.w3.org/2000/svg" xmlns:xlink="http://www.w3.org/1999/xlink" xmlns:sketch="http://www.bohemiancoding.com/sketch/ns">
    <!-- Generator: Sketch 3.1 (8751) - http://www.bohemiancoding.com/sketch -->
    <title>eros</title>
    <desc>Created with Sketch.</desc>
    <defs></defs>
    <g id="Page-1" stroke="none" stroke-width="1" fill="none" fill-rule="evenodd" sketch:type="MSPage">
        <g id="mobile-5" sketch:type="MSArtboardGroup" transform="translate(-57.000000, -629.000000)" fill="#FFFFFF">
            <g id="eros" sketch:type="MSLayerGroup" transform="translate(57.000000, 629.000000)">
                <path d="M19.9405405,13.1896552 L20.4594595,11.8965517 C20.2,12.1551724 20.0702703,12.6724138 19.9405405,13.1896552 L19.9405405,13.1896552 Z" id="Shape" sketch:type="MSShapeGroup"></path>
                <path d="M23.8324324,56.5086207 L23.8324324,56.5086207 C24.2216216,57.1551724 24.4810811,57.6724138 24.8702703,57.9310345 L24.8702703,57.9310345 C25,58.0603448 25,58.0603448 25.1297297,58.1896552 L25.1297297,58.1896552 C25.2594595,58.1896552 25.2594595,58.3189655 25.3891892,58.3189655 L25.5189189,58.3189655 L25.6486486,58.3189655 L25.9081081,58.3189655 L23.8324324,56.5086207 L23.8324324,56.5086207 Z" id="Shape" sketch:type="MSShapeGroup"></path>
                <path d="M27.9294595,75 L15.7891892,46.9396552 L16.6972973,46.9396552 L20.4594595,53.2758621 C19.4216216,51.5948276 18.6432432,42.9310345 18.6432432,32.4568966 C18.6432432,23.7931034 19.1621622,16.2931034 20.0702703,13.0603448 L16.827027,21.9827586 L16.827027,-8.8817842e-16 L16.827027,0 L15.6594595,1.33226763e-15 L15.6594595,22.2413793 L10.8594595,22.2413793 L10.4702703,23.2758621 L3.46486486,23.2758621 L2.2972973,25.6034483 L10.2108108,25.6034483 L9.56216216,30.5172414 L3.85405405,33.362069 C3.46486486,32.9741379 2.94594595,32.7155172 2.42702703,32.7155172 C1.38918919,32.7155172 0.481081081,33.6206897 0.481081081,34.6551724 C0.481081081,35.6896552 1.38918919,36.5948276 2.42702703,36.5948276 C3.07567568,36.5948276 3.59459459,36.3362069 3.85405405,35.9482759 L9.56216216,38.7931034 L10.3405405,44.3534483 L2.2972973,44.3534483 L3.46486486,46.5517241 L10.6,46.5517241 L10.6,46.9396552 L11.6378378,46.9396552 L6.83783784,57.8017241 L8.91351351,58.7068966 L13.7135135,47.7155172 L25.4813337,75 L27.9294595,75 Z" id="Shape" sketch:type="MSShapeGroup"></path>
                <path d="M47.7027027,30.5172414 C47.0540541,30.5172414 46.5351351,30.7758621 46.2756757,31.2931034 L45.3675676,30.7758621 L31.4864865,23.7931034 C30.7081081,13.8362069 28.6324324,6.72413793 26.1675676,6.72413793 L25.9081081,6.72413793 L25.7783784,6.72413793 L25.6486486,6.72413793 C25.5189189,6.72413793 25.5189189,6.85344828 25.3891892,6.85344828 L25.3891892,6.85344828 C25.2594595,6.85344828 25.2594595,6.98275862 25.1297297,7.11206897 L25.1297297,7.11206897 C24.7405405,7.5 24.4810811,7.88793103 24.0918919,8.53448276 L24.0918919,8.53448276 C24.0918919,8.53448276 24.0918919,8.53448276 24.0918919,8.6637931 L24.0918919,8.6637931 C22.0162162,12.5431034 20.5891892,21.8534483 20.5891892,32.5862069 C20.5891892,43.3189655 22.0162162,52.6293103 24.0918919,56.5086207 L26.2972973,58.4482759 C28.7621622,58.4482759 30.9675676,51.0775862 31.6162162,40.862069 L45.4972973,33.8793103 L46.4054054,33.362069 C46.7945946,33.75 47.3135135,34.137931 47.8324324,34.137931 C48.8702703,34.137931 49.6486486,33.362069 49.6486486,32.3275862 C49.5189189,31.4224138 48.6108108,30.5172414 47.7027027,30.5172414 L47.7027027,30.5172414 Z M44.8486486,32.9741379 L31.4864865,39.6982759 C31.6162162,37.5 31.7459459,35.1724138 31.7459459,32.7155172 C31.7459459,30.1293103 31.6162162,27.6724138 31.4864865,25.2155172 L44.8486486,31.9396552 L44.8486486,32.4568966 C44.7189189,32.5862069 44.8486486,32.7155172 44.8486486,32.9741379 L44.8486486,32.9741379 Z" id="Shape" sketch:type="MSShapeGroup"></path>
            </g>
        </g>
    </g>
</svg>