<?xml version="1.0" encoding="UTF-8" standalone="no"?>
<svg width="59px" height="59px" viewBox="0 0 59 59" version="1.1" xmlns="http://www.w3.org/2000/svg" xmlns:xlink="http://www.w3.org/1999/xlink" xmlns:sketch="http://www.bohemiancoding.com/sketch/ns">
    <!-- Generator: Sketch 3.1 (8751) - http://www.bohemiancoding.com/sketch -->
    <title>shortwave</title>
    <desc>Created with Sketch.</desc>
    <defs></defs>
    <g id="Page-1" stroke="none" stroke-width="1" fill="none" fill-rule="evenodd" sketch:type="MSPage">
        <g id="mobile-5" sketch:type="MSArtboardGroup" transform="translate(-532.000000, -637.000000)" fill="#FEFEFE">
            <path d="M588.66503,649.681194 C589.954645,649.681194 591,648.648955 591,647.375522 C591,646.10209 589.954645,645.069851 588.66503,645.069851 C587.55982,645.069851 586.637803,645.831045 586.396567,646.850149 L574.884962,649.155821 C574.330543,648.078209 573.290024,647.288955 572.047569,647.067463 L571.866188,642.05791 C572.81904,641.656119 573.488333,640.723582 573.488333,639.634627 C573.487729,638.179701 572.293037,637 570.819019,637 C569.345606,637 568.15031,638.179701 568.15031,639.635224 C568.15031,640.880597 569.027586,641.917015 570.203535,642.192239 L570.381893,647.120597 C569.392161,647.361791 568.549347,647.965373 568.006415,648.783881 L558.569801,643.148657 C558.613937,642.97194 558.644167,642.789254 558.644167,642.599403 C558.644167,641.325373 557.598811,640.293731 556.309197,640.293731 C555.020188,640.293731 553.974228,641.325373 553.974228,642.599403 C553.974228,643.873433 555.019583,644.905075 556.309197,644.905075 C556.795901,644.905075 557.247538,644.757015 557.621182,644.505672 L567.405441,650.349851 C567.376421,650.540299 567.357073,650.734328 567.357073,650.932537 C567.357073,651.507463 567.485249,652.05194 567.709556,652.543881 L552.844833,667.187463 C552.15861,666.633433 551.282543,666.300299 550.326669,666.300299 C549.51469,666.300299 548.760752,666.541493 548.131362,666.953433 L541.077481,659.98806 C541.449915,659.465672 541.673013,658.831642 541.673013,658.144478 C541.673013,656.370746 540.217134,654.933134 538.420864,654.933134 C536.624594,654.933134 535.168714,656.370746 535.168714,658.144478 C535.168714,659.918209 536.625199,661.355821 538.420864,661.355821 C538.912405,661.355821 539.37432,661.24 539.792099,661.046567 L546.965691,668.130746 C546.575119,668.739104 546.345975,669.45791 546.345975,670.231045 C546.345975,670.527761 546.382251,670.815522 546.44513,671.093134 L536.279971,674.466269 C535.861587,673.844179 535.147553,673.43403 534.33497,673.43403 C533.045355,673.43403 532,674.466269 532,675.739701 C532,677.013134 533.045355,678.044179 534.33497,678.044179 C535.504268,678.044179 536.46377,677.193433 536.634268,676.08597 L547.153118,672.595821 C547.75651,673.383881 548.651924,673.938507 549.682164,674.104478 L549.68035,680.00597 C548.487472,680.26806 547.594477,681.316418 547.594477,682.573731 C547.594477,684.029254 548.789168,685.208358 550.263186,685.208358 C551.737203,685.208358 552.931895,684.028657 552.931895,682.573731 C552.931895,681.500299 552.280135,680.580896 551.34784,680.170746 L551.350259,674.025075 C552.497792,673.723582 553.439156,672.931343 553.93251,671.887761 L567.386094,674.562985 C567.366142,674.702687 567.342563,674.840597 567.342563,674.985075 C567.342563,676.674627 568.730122,678.044776 570.441144,678.044776 C570.667264,678.044776 570.88613,678.01791 571.098345,677.972537 L573.298488,683.339701 C572.663657,683.838806 572.248296,684.597612 572.248296,685.46209 C572.248296,685.903881 572.364984,686.315821 572.555434,686.684179 L568.090454,691.306866 C568.070503,691.299104 568.052969,691.286567 568.031808,691.279403 C566.818978,690.847761 565.480996,691.470448 565.045079,692.66806 C564.609161,693.865672 565.238551,695.186269 566.451381,695.617313 C567.66542,696.048358 569.002193,695.425672 569.438715,694.22806 C569.663627,693.610149 569.600748,692.961791 569.324445,692.416119 L573.726546,687.856716 C574.109259,688.055522 574.537921,688.17791 574.999231,688.17791 C575.72173,688.17791 576.37349,687.897313 576.86503,687.447164 L585.143834,692.942687 C585.060399,693.179104 585.005985,693.429254 585.005985,693.695522 C585.005985,694.968955 586.05134,696 587.339745,696 C588.629359,696 589.674714,694.967761 589.674714,693.695522 C589.674714,692.421493 588.629359,691.389851 587.339745,691.389851 C586.935871,691.389851 586.560414,691.500896 586.228488,691.68 L577.692125,686.013731 C577.72961,685.835224 577.750771,685.650746 577.750771,685.460896 C577.750771,683.959403 576.518594,682.743284 574.998627,682.743284 C574.950259,682.743284 574.906123,682.754627 574.858964,682.756418 L572.589291,677.18209 C573.173336,676.625672 573.53912,675.848358 573.53912,674.983881 C573.53912,673.294328 572.15156,671.924179 570.440539,671.924179 C569.476805,671.924179 568.626131,672.367761 568.058411,673.050149 L554.30434,670.272836 C554.30434,670.258507 554.306154,670.244776 554.306154,670.230448 C554.306154,669.6 554.152585,669.006567 553.885351,668.478806 L568.698683,653.868657 C569.40123,654.484179 570.323851,654.861493 571.336558,654.861493 C572.155188,654.861493 572.914567,654.616716 573.54698,654.198806 L581.227228,661.782687 C581.078496,662.111045 580.990829,662.472836 580.990829,662.855522 C580.990829,664.311642 582.186125,665.490746 583.659538,665.490746 C585.132951,665.490746 586.327643,664.311642 586.327643,662.855522 C586.327643,661.4 585.132951,660.220299 583.659538,660.220299 C583.183717,660.220299 582.742963,660.353433 582.357227,660.568955 L574.708418,653.015522 C575.09234,652.410746 575.317856,651.69791 575.317856,650.93194 C575.317856,650.870448 575.311206,650.811343 575.308183,650.750448 L586.629339,648.483582 C587.027166,649.194627 587.784731,649.681194 588.66503,649.681194 L588.66503,649.681194 Z" id="shortwave" sketch:type="MSShapeGroup"></path>
        </g>
    </g>
</svg>